STARTFONT 2.1
COMMENT Copyright (C) 2022 by Andrew G. Crowell. Creative Commons Attribution 4.0 International License (CC BY 4.0).
COMMENT om_buttons_silhouette.bdf
FONT -eggboycolor-omelette_buttons_silhouette-medium-r-normal--8-100-72-72-m-90-ISO8859-1
SIZE 8 72 72
FONTBOUNDINGBOX 8 8 0 -2
STARTPROPERTIES 13
FONT_ASCENT 6 
FONT_DESCENT 2
PIXEL_SIZE 8
POINT_SIZE 100
RESOLUTION_X 72
RESOLUTION_Y 72
SPACING "C"
DEFAULT_CHAR 32
AVERAGE_WIDTH 90
CHARSET_REGISTRY "ISO8859"
CHARSET_ENCODING "1"
FOUNDRY "eggboycolor"
COPYRIGHT "Copyright (C) 2022 by Andrew G. Crowell. Creative Commons Attribution 4.0 International License (CC BY 4.0)."
ENDPROPERTIES
CHARS 96
STARTCHAR char32
ENCODING 32
SWIDTH 800 0
DWIDTH 8 0
BBX 8 8 0 -2
BITMAP
18
18
C3
C3
00
18
18
00
ENDCHAR
STARTCHAR char33
ENCODING 33
SWIDTH 800 0
DWIDTH 8 0
BBX 8 8 0 -2
BITMAP
18
18
C3
C3
00
18
18
00
ENDCHAR
STARTCHAR char34
ENCODING 34
SWIDTH 800 0
DWIDTH 8 0
BBX 8 8 0 -2
BITMAP
18
18
C3
C3
00
18
18
00
ENDCHAR
STARTCHAR char35
ENCODING 35
SWIDTH 800 0
DWIDTH 8 0
BBX 8 8 0 -2
BITMAP
18
18
C3
C3
00
18
18
00
ENDCHAR
STARTCHAR char36
ENCODING 36
SWIDTH 800 0
DWIDTH 8 0
BBX 8 8 0 -2
BITMAP
18
18
C3
C3
00
18
18
00
ENDCHAR
STARTCHAR char37
ENCODING 37
SWIDTH 800 0
DWIDTH 8 0
BBX 8 8 0 -2
BITMAP
38
38
FE
FE
FE
38
38
00
ENDCHAR
STARTCHAR char38
ENCODING 38
SWIDTH 800 0
DWIDTH 8 0
BBX 8 8 0 -2
BITMAP
38
38
FE
FE
FE
38
38
00
ENDCHAR
STARTCHAR char39
ENCODING 39
SWIDTH 800 0
DWIDTH 8 0
BBX 8 8 0 -2
BITMAP
38
38
FE
FE
FE
38
38
00
ENDCHAR
STARTCHAR char40
ENCODING 40
SWIDTH 800 0
DWIDTH 8 0
BBX 8 8 0 -2
BITMAP
38
38
FE
FE
FE
38
38
00
ENDCHAR
STARTCHAR char41
ENCODING 41
SWIDTH 800 0
DWIDTH 8 0
BBX 8 8 0 -2
BITMAP
38
38
FE
FE
FE
38
38
00
ENDCHAR
STARTCHAR char42
ENCODING 42
SWIDTH 800 0
DWIDTH 8 0
BBX 8 8 0 -2
BITMAP
7C
FE
FE
FE
FE
FE
7C
00
ENDCHAR
STARTCHAR char43
ENCODING 43
SWIDTH 800 0
DWIDTH 8 0
BBX 8 8 0 -2
BITMAP
7C
FE
FE
FE
FE
FE
7C
00
ENDCHAR
STARTCHAR char44
ENCODING 44
SWIDTH 800 0
DWIDTH 8 0
BBX 8 8 0 -2
BITMAP
7C
FE
FE
FE
FE
FE
7C
00
ENDCHAR
STARTCHAR char45
ENCODING 45
SWIDTH 800 0
DWIDTH 8 0
BBX 8 8 0 -2
BITMAP
7C
FE
FE
FE
FE
FE
7C
00
ENDCHAR
STARTCHAR char46
ENCODING 46
SWIDTH 800 0
DWIDTH 8 0
BBX 8 8 0 -2
BITMAP
3C
7E
7E
7E
7E
3C
00
00
ENDCHAR
STARTCHAR char47
ENCODING 47
SWIDTH 800 0
DWIDTH 8 0
BBX 8 8 0 -2
BITMAP
18
18
7E
7E
18
18
00
00
ENDCHAR
STARTCHAR char48
ENCODING 48
SWIDTH 800 0
DWIDTH 8 0
BBX 8 8 0 -2
BITMAP
7C
FE
FE
FE
FE
FE
7C
00
ENDCHAR
STARTCHAR char49
ENCODING 49
SWIDTH 800 0
DWIDTH 8 0
BBX 8 8 0 -2
BITMAP
7C
FE
FE
FE
FE
FE
7C
00
ENDCHAR
STARTCHAR char50
ENCODING 50
SWIDTH 800 0
DWIDTH 8 0
BBX 8 8 0 -2
BITMAP
7C
FE
FE
FE
FE
FE
7C
00
ENDCHAR
STARTCHAR char51
ENCODING 51
SWIDTH 800 0
DWIDTH 8 0
BBX 8 8 0 -2
BITMAP
7C
FE
FE
FE
FE
FE
7C
00
ENDCHAR
STARTCHAR char52
ENCODING 52
SWIDTH 800 0
DWIDTH 8 0
BBX 8 8 0 -2
BITMAP
FF
FF
FB
FF
FB
7C
10
00
ENDCHAR
STARTCHAR char53
ENCODING 53
SWIDTH 800 0
DWIDTH 8 0
BBX 8 8 0 -2
BITMAP
FF
FF
DD
FF
DD
7E
28
00
ENDCHAR
STARTCHAR char54
ENCODING 54
SWIDTH 800 0
DWIDTH 8 0
BBX 8 8 0 -2
BITMAP
7E
FF
F5
FF
FF
FF
1A
00
ENDCHAR
STARTCHAR char55
ENCODING 55
SWIDTH 800 0
DWIDTH 8 0
BBX 8 8 0 -2
BITMAP
7E
FF
DA
EF
DF
FF
2C
00
ENDCHAR
STARTCHAR char56
ENCODING 56
SWIDTH 800 0
DWIDTH 8 0
BBX 8 8 0 -2
BITMAP
FF
FF
FF
FF
FF
42
3C
00
ENDCHAR
STARTCHAR char57
ENCODING 57
SWIDTH 800 0
DWIDTH 8 0
BBX 8 8 0 -2
BITMAP
FF
FF
E7
FB
E7
58
3C
00
ENDCHAR
STARTCHAR char58
ENCODING 58
SWIDTH 800 0
DWIDTH 8 0
BBX 8 8 0 -2
BITMAP
3F
7F
BF
DF
FF
91
FF
00
ENDCHAR
STARTCHAR char59
ENCODING 59
SWIDTH 800 0
DWIDTH 8 0
BBX 8 8 0 -2
BITMAP
FC
FE
BB
DD
FB
95
FF
00
ENDCHAR
STARTCHAR char60
ENCODING 60
SWIDTH 800 0
DWIDTH 8 0
BBX 8 8 0 -2
BITMAP
7E
FF
DF
BF
FF
91
7E
00
ENDCHAR
STARTCHAR char61
ENCODING 61
SWIDTH 800 0
DWIDTH 8 0
BBX 8 8 0 -2
BITMAP
7E
FF
DB
BD
FB
95
7E
00
ENDCHAR
STARTCHAR char62
ENCODING 62
SWIDTH 800 0
DWIDTH 8 0
BBX 8 8 0 -2
BITMAP
3C
7E
7E
7E
7E
3C
00
00
ENDCHAR
STARTCHAR char63
ENCODING 63
SWIDTH 800 0
DWIDTH 8 0
BBX 8 8 0 -2
BITMAP
18
18
7E
7E
18
18
00
00
ENDCHAR
STARTCHAR char64
ENCODING 64
SWIDTH 800 0
DWIDTH 8 0
BBX 8 8 0 -2
BITMAP
7C
FE
FE
FE
FE
FE
7C
00
ENDCHAR
STARTCHAR char65
ENCODING 65
SWIDTH 800 0
DWIDTH 8 0
BBX 8 8 0 -2
BITMAP
7C
FE
FE
FE
FE
FE
7C
00
ENDCHAR
STARTCHAR char66
ENCODING 66
SWIDTH 800 0
DWIDTH 8 0
BBX 8 8 0 -2
BITMAP
7C
FE
FE
FE
FE
FE
7C
00
ENDCHAR
STARTCHAR char67
ENCODING 67
SWIDTH 800 0
DWIDTH 8 0
BBX 8 8 0 -2
BITMAP
7C
FE
FE
FE
FE
FE
7C
00
ENDCHAR
STARTCHAR char68
ENCODING 68
SWIDTH 800 0
DWIDTH 8 0
BBX 8 8 0 -2
BITMAP
FF
FF
FF
F7
FF
1A
3C
00
ENDCHAR
STARTCHAR char69
ENCODING 69
SWIDTH 800 0
DWIDTH 8 0
BBX 8 8 0 -2
BITMAP
FF
FF
FB
FF
FF
18
3C
00
ENDCHAR
STARTCHAR char70
ENCODING 70
SWIDTH 800 0
DWIDTH 8 0
BBX 8 8 0 -2
BITMAP
FF
FF
DF
FB
DF
2C
3C
00
ENDCHAR
STARTCHAR char71
ENCODING 71
SWIDTH 800 0
DWIDTH 8 0
BBX 8 8 0 -2
BITMAP
FF
FF
DB
FF
DF
28
3C
00
ENDCHAR
STARTCHAR char72
ENCODING 72
SWIDTH 800 0
DWIDTH 8 0
BBX 8 8 0 -2
BITMAP
7C
FE
FE
FE
FE
FE
7C
00
ENDCHAR
STARTCHAR char73
ENCODING 73
SWIDTH 800 0
DWIDTH 8 0
BBX 8 8 0 -2
BITMAP
7C
FE
FE
FE
FE
FE
7C
00
ENDCHAR
STARTCHAR char74
ENCODING 74
SWIDTH 800 0
DWIDTH 8 0
BBX 8 8 0 -2
BITMAP
7C
FE
FE
FE
FE
FE
7C
00
ENDCHAR
STARTCHAR char75
ENCODING 75
SWIDTH 800 0
DWIDTH 8 0
BBX 8 8 0 -2
BITMAP
7C
FE
FE
FE
FE
FE
7C
00
ENDCHAR
STARTCHAR char76
ENCODING 76
SWIDTH 800 0
DWIDTH 8 0
BBX 8 8 0 -2
BITMAP
7C
FE
FE
FE
FE
FE
7C
00
ENDCHAR
STARTCHAR char77
ENCODING 77
SWIDTH 800 0
DWIDTH 8 0
BBX 8 8 0 -2
BITMAP
7C
FE
FE
FE
FE
FE
7C
00
ENDCHAR
STARTCHAR char78
ENCODING 78
SWIDTH 800 0
DWIDTH 8 0
BBX 8 8 0 -2
BITMAP
3C
7E
7E
7E
7E
3C
00
00
ENDCHAR
STARTCHAR char79
ENCODING 79
SWIDTH 800 0
DWIDTH 8 0
BBX 8 8 0 -2
BITMAP
18
18
7E
7E
18
18
00
00
ENDCHAR
STARTCHAR char80
ENCODING 80
SWIDTH 800 0
DWIDTH 8 0
BBX 8 8 0 -2
BITMAP
00
0D
15
15
15
19
00
00
ENDCHAR
STARTCHAR char81
ENCODING 81
SWIDTH 800 0
DWIDTH 8 0
BBX 8 8 0 -2
BITMAP
00
9D
48
88
08
09
00
00
ENDCHAR
STARTCHAR char82
ENCODING 82
SWIDTH 800 0
DWIDTH 8 0
BBX 8 8 0 -2
BITMAP
00
CD
95
95
95
D9
00
00
ENDCHAR
STARTCHAR char83
ENCODING 83
SWIDTH 800 0
DWIDTH 8 0
BBX 8 8 0 -2
BITMAP
00
8C
50
5C
44
58
00
00
ENDCHAR
STARTCHAR char84
ENCODING 84
SWIDTH 800 0
DWIDTH 8 0
BBX 8 8 0 -2
BITMAP
00
0D
11
1D
05
19
00
00
ENDCHAR
STARTCHAR char85
ENCODING 85
SWIDTH 800 0
DWIDTH 8 0
BBX 8 8 0 -2
BITMAP
00
49
55
DD
55
55
00
00
ENDCHAR
STARTCHAR char86
ENCODING 86
SWIDTH 800 0
DWIDTH 8 0
BBX 8 8 0 -2
BITMAP
00
9C
50
9C
50
5C
00
00
ENDCHAR
STARTCHAR char87
ENCODING 87
SWIDTH 800 0
DWIDTH 8 0
BBX 8 8 0 -2
BITMAP
00
20
20
20
20
3C
00
00
ENDCHAR
STARTCHAR char88
ENCODING 88
SWIDTH 800 0
DWIDTH 8 0
BBX 8 8 0 -2
BITMAP
00
38
24
38
24
24
00
00
ENDCHAR
STARTCHAR char89
ENCODING 89
SWIDTH 800 0
DWIDTH 8 0
BBX 8 8 0 -2
BITMAP
00
42
44
46
42
74
00
00
ENDCHAR
STARTCHAR char90
ENCODING 90
SWIDTH 800 0
DWIDTH 8 0
BBX 8 8 0 -2
BITMAP
00
62
54
66
52
54
00
00
ENDCHAR
STARTCHAR char91
ENCODING 91
SWIDTH 800 0
DWIDTH 8 0
BBX 8 8 0 -2
BITMAP
00
44
42
44
42
76
00
00
ENDCHAR
STARTCHAR char92
ENCODING 92
SWIDTH 800 0
DWIDTH 8 0
BBX 8 8 0 -2
BITMAP
00
64
52
64
52
56
00
00
ENDCHAR
STARTCHAR char93
ENCODING 93
SWIDTH 800 0
DWIDTH 8 0
BBX 8 8 0 -2
BITMAP
FE
FE
FE
FE
FE
7C
00
00
ENDCHAR
STARTCHAR char94
ENCODING 94
SWIDTH 800 0
DWIDTH 8 0
BBX 8 8 0 -2
BITMAP
3C
7E
7E
7E
7E
3C
00
00
ENDCHAR
STARTCHAR char95
ENCODING 95
SWIDTH 800 0
DWIDTH 8 0
BBX 8 8 0 -2
BITMAP
18
18
7E
7E
18
18
00
00
ENDCHAR
STARTCHAR char96
ENCODING 96
SWIDTH 800 0
DWIDTH 8 0
BBX 8 8 0 -2
BITMAP
18
3C
3C
3C
3C
3C
18
00
ENDCHAR
STARTCHAR char97
ENCODING 97
SWIDTH 800 0
DWIDTH 8 0
BBX 8 8 0 -2
BITMAP
00
3C
7E
FF
FF
7E
3C
00
ENDCHAR
STARTCHAR char98
ENCODING 98
SWIDTH 800 0
DWIDTH 8 0
BBX 8 8 0 -2
BITMAP
3C
18
00
7E
FF
7E
3C
00
ENDCHAR
STARTCHAR char99
ENCODING 99
SWIDTH 800 0
DWIDTH 8 0
BBX 8 8 0 -2
BITMAP
00
3C
7E
FF
FF
7E
3C
00
ENDCHAR
STARTCHAR char100
ENCODING 100
SWIDTH 800 0
DWIDTH 8 0
BBX 8 8 0 -2
BITMAP
3C
18
00
7E
FF
7E
3C
00
ENDCHAR
STARTCHAR char101
ENCODING 101
SWIDTH 800 0
DWIDTH 8 0
BBX 8 8 0 -2
BITMAP
00
C0
F8
FF
F8
C0
00
00
ENDCHAR
STARTCHAR char102
ENCODING 102
SWIDTH 800 0
DWIDTH 8 0
BBX 8 8 0 -2
BITMAP
00
00
7E
7E
7E
7E
00
00
ENDCHAR
STARTCHAR char103
ENCODING 103
SWIDTH 800 0
DWIDTH 8 0
BBX 8 8 0 -2
BITMAP
06
0F
1E
3C
78
F0
60
00
ENDCHAR
STARTCHAR char104
ENCODING 104
SWIDTH 800 0
DWIDTH 8 0
BBX 8 8 0 -2
BITMAP
7C
FE
FE
FE
FE
FE
7C
00
ENDCHAR
STARTCHAR char105
ENCODING 105
SWIDTH 800 0
DWIDTH 8 0
BBX 8 8 0 -2
BITMAP
7C
FE
FE
FE
FE
FE
7C
00
ENDCHAR
STARTCHAR char106
ENCODING 106
SWIDTH 800 0
DWIDTH 8 0
BBX 8 8 0 -2
BITMAP
7C
FE
FE
FE
FE
FE
7C
00
ENDCHAR
STARTCHAR char107
ENCODING 107
SWIDTH 800 0
DWIDTH 8 0
BBX 8 8 0 -2
BITMAP
7C
FE
FE
FE
FE
FE
7C
00
ENDCHAR
STARTCHAR char108
ENCODING 108
SWIDTH 800 0
DWIDTH 8 0
BBX 8 8 0 -2
BITMAP
7E
FE
FE
FE
FE
7E
00
00
ENDCHAR
STARTCHAR char109
ENCODING 109
SWIDTH 800 0
DWIDTH 8 0
BBX 8 8 0 -2
BITMAP
FC
FE
FE
FE
FE
FC
00
00
ENDCHAR
STARTCHAR char110
ENCODING 110
SWIDTH 800 0
DWIDTH 8 0
BBX 8 8 0 -2
BITMAP
3C
7E
7E
7E
7E
3C
00
00
ENDCHAR
STARTCHAR char111
ENCODING 111
SWIDTH 800 0
DWIDTH 8 0
BBX 8 8 0 -2
BITMAP
18
18
7E
7E
18
18
00
00
ENDCHAR
STARTCHAR char112
ENCODING 112
SWIDTH 800 0
DWIDTH 8 0
BBX 8 8 0 -2
BITMAP
00
03
04
07
01
06
00
00
ENDCHAR
STARTCHAR char113
ENCODING 113
SWIDTH 800 0
DWIDTH 8 0
BBX 8 8 0 -2
BITMAP
00
74
44
74
44
77
00
00
ENDCHAR
STARTCHAR char114
ENCODING 114
SWIDTH 800 0
DWIDTH 8 0
BBX 8 8 0 -2
BITMAP
00
73
44
74
44
73
00
00
ENDCHAR
STARTCHAR char115
ENCODING 115
SWIDTH 800 0
DWIDTH 8 0
BBX 8 8 0 -2
BITMAP
00
70
20
20
20
20
00
00
ENDCHAR
STARTCHAR char116
ENCODING 116
SWIDTH 800 0
DWIDTH 8 0
BBX 8 8 0 -2
BITMAP
00
0D
10
1C
04
18
00
00
ENDCHAR
STARTCHAR char117
ENCODING 117
SWIDTH 800 0
DWIDTH 8 0
BBX 8 8 0 -2
BITMAP
00
C9
95
9D
95
95
00
00
ENDCHAR
STARTCHAR char118
ENCODING 118
SWIDTH 800 0
DWIDTH 8 0
BBX 8 8 0 -2
BITMAP
00
9C
48
88
48
48
00
00
ENDCHAR
STARTCHAR char119
ENCODING 119
SWIDTH 800 0
DWIDTH 8 0
BBX 8 8 0 -2
BITMAP
00
19
15
19
15
15
00
00
ENDCHAR
STARTCHAR char120
ENCODING 120
SWIDTH 800 0
DWIDTH 8 0
BBX 8 8 0 -2
BITMAP
00
58
54
54
54
D4
00
00
ENDCHAR
STARTCHAR char121
ENCODING 121
SWIDTH 800 0
DWIDTH 8 0
BBX 8 8 0 -2
BITMAP
00
7C
FE
FE
7C
00
00
00
ENDCHAR
STARTCHAR char122
ENCODING 122
SWIDTH 800 0
DWIDTH 8 0
BBX 8 8 0 -2
BITMAP
00
7C
FE
FE
7C
00
00
00
ENDCHAR
STARTCHAR char123
ENCODING 123
SWIDTH 800 0
DWIDTH 8 0
BBX 8 8 0 -2
BITMAP
7C
FE
FE
FE
FE
FE
7C
00
ENDCHAR
STARTCHAR char124
ENCODING 124
SWIDTH 800 0
DWIDTH 8 0
BBX 8 8 0 -2
BITMAP
7C
FE
FE
FE
FE
FE
7C
00
ENDCHAR
STARTCHAR char125
ENCODING 125
SWIDTH 800 0
DWIDTH 8 0
BBX 8 8 0 -2
BITMAP
7C
FE
FE
FE
FE
FE
7C
00
ENDCHAR
STARTCHAR char126
ENCODING 126
SWIDTH 800 0
DWIDTH 8 0
BBX 8 8 0 -2
BITMAP
7C
FE
FE
FE
FE
FE
7C
00
ENDCHAR
STARTCHAR char127
ENCODING 127
SWIDTH 800 0
DWIDTH 8 0
BBX 8 8 0 -2
BITMAP
7C
FE
FE
FE
FE
FE
7C
00
ENDCHAR
ENDFONT
